<mxfile host="app.diagrams.net" modified="2021-05-16T00:28:59.026Z" agent="5.0 (X11; CrOS aarch64 13729.84.0) AppleWebKit/537.36 (KHTML, like Gecko) Chrome/89.0.4389.130 Safari/537.36" etag="u2oL_gTnQqSMChcPSLDB" version="14.6.1" type="github">
  <diagram id="fq1feyS0N_w_WMwErcKN" name="ページ1">
    <mxGraphModel dx="831" dy="549" grid="1" gridSize="10" guides="1" tooltips="1" connect="1" arrows="1" fold="1" page="1" pageScale="1" pageWidth="827" pageHeight="1169" math="0" shadow="0">
      <root>
        <mxCell id="0" />
        <mxCell id="1" parent="0" />
        <mxCell id="aPJKQu0TAGCKLEnm385m-9" value="&lt;b&gt;Microsoft 365 Business Premium&lt;/b&gt;" style="rounded=0;whiteSpace=wrap;html=1;align=center;verticalAlign=top;" vertex="1" parent="1">
          <mxGeometry x="290" y="40" width="290" height="190" as="geometry" />
        </mxCell>
        <mxCell id="aPJKQu0TAGCKLEnm385m-5" style="edgeStyle=orthogonalEdgeStyle;rounded=0;orthogonalLoop=1;jettySize=auto;html=1;" edge="1" parent="1" source="aPJKQu0TAGCKLEnm385m-1" target="aPJKQu0TAGCKLEnm385m-4">
          <mxGeometry relative="1" as="geometry" />
        </mxCell>
        <mxCell id="aPJKQu0TAGCKLEnm385m-8" style="edgeStyle=orthogonalEdgeStyle;rounded=0;orthogonalLoop=1;jettySize=auto;html=1;" edge="1" parent="1" source="aPJKQu0TAGCKLEnm385m-1" target="aPJKQu0TAGCKLEnm385m-3">
          <mxGeometry relative="1" as="geometry">
            <Array as="points">
              <mxPoint x="490.94" y="92" />
              <mxPoint x="490.94" y="140" />
            </Array>
          </mxGeometry>
        </mxCell>
        <mxCell id="aPJKQu0TAGCKLEnm385m-1" value="AzureAD P1" style="aspect=fixed;html=1;points=[];align=center;image;fontSize=12;image=img/lib/azure2/identity/Azure_Active_Directory.svg;" vertex="1" parent="1">
          <mxGeometry x="410.94" y="70" width="48.13" height="44" as="geometry" />
        </mxCell>
        <mxCell id="aPJKQu0TAGCKLEnm385m-2" value="Office365 License" style="pointerEvents=1;shadow=0;dashed=0;html=1;strokeColor=none;fillColor=#505050;labelPosition=center;verticalLabelPosition=bottom;outlineConnect=0;verticalAlign=top;align=center;shape=mxgraph.office.clouds.office_365;" vertex="1" parent="1">
          <mxGeometry x="320.94" y="79" width="51.33" height="31" as="geometry" />
        </mxCell>
        <mxCell id="aPJKQu0TAGCKLEnm385m-3" value="User" style="aspect=fixed;html=1;points=[];align=center;image;fontSize=12;image=img/lib/azure2/identity/Users.svg;" vertex="1" parent="1">
          <mxGeometry x="510.94" y="160" width="36.57" height="40" as="geometry" />
        </mxCell>
        <mxCell id="aPJKQu0TAGCKLEnm385m-4" value="Group" style="aspect=fixed;html=1;points=[];align=center;image;fontSize=12;image=img/lib/azure2/identity/Groups.svg;" vertex="1" parent="1">
          <mxGeometry x="510.94" y="74" width="43.71" height="36" as="geometry" />
        </mxCell>
      </root>
    </mxGraphModel>
  </diagram>
</mxfile>
